<svg width="278" height="105" viewBox="0 0 278 105" fill="none" xmlns="http://www.w3.org/2000/svg">
<path d="M11.7487 79.378C8.14794 77.8084 5.35502 75.5925 3.34689 72.7996C1.33876 70.0067 0.23082 66.8214 0 63.3129H14.2416C14.4493 65.1133 15.4649 66.6598 17.2653 67.9524C19.0657 69.245 21.3739 69.8913 24.1668 69.8913C26.752 69.8913 28.7832 69.4758 30.2605 68.6448C31.7377 67.8139 32.4764 66.5444 32.4764 64.8132C32.4764 63.0821 31.6223 61.8126 29.8912 60.9816C28.16 60.1507 25.4364 59.3197 21.6971 58.4426C17.5192 57.427 14.1031 56.3883 11.4025 55.3265C8.70191 54.2417 6.39371 52.5336 4.45482 50.1562C2.51594 47.7787 1.54649 44.5472 1.54649 40.4386C1.54649 37.4149 2.49286 34.6681 4.40866 32.1984C6.32447 29.7286 8.90965 27.7666 12.2335 26.3817C15.5342 24.9737 19.2735 24.2812 23.4513 24.2812C27.3291 24.2812 30.9299 25.066 34.2306 26.5894C37.5313 28.1359 40.2088 30.2595 42.2631 32.9601C44.3174 35.6607 45.4023 38.6844 45.5408 42.0775H31.53C31.3915 40.3463 30.5375 38.9383 28.991 37.8073C27.4445 36.6994 25.4133 36.1454 22.8973 36.1454C20.7507 36.1454 19.0426 36.5147 17.7731 37.2302C16.5036 37.9458 15.8804 38.9614 15.8804 40.254C15.8804 41.9851 16.7575 43.2777 18.5118 44.1318C20.266 44.9858 23.1051 45.8629 26.9829 46.7169C31.0914 47.7326 34.4383 48.7482 37.0697 49.7869C39.701 50.8255 41.9861 52.4874 43.925 54.7495C45.8639 57.0115 46.8334 60.0583 46.8334 63.8669C46.8334 69.4758 44.756 73.8614 40.5781 77.0236C36.4003 80.1858 30.953 81.7785 24.1899 81.7785C19.5043 81.7785 15.3726 80.9937 11.7949 79.4011L11.7487 79.378Z" fill="#1A3C34"/>
<path d="M160.443 27.3277C163.813 29.382 166.467 32.198 168.36 35.7988C170.276 39.3996 171.222 43.4159 171.222 47.8707V80.4394H156.888V50.5713C156.888 46.6243 155.873 43.462 153.818 41.0846C151.764 38.7071 148.948 37.53 145.347 37.53C141.747 37.53 138.908 38.7302 136.622 41.1538C134.314 43.5544 133.16 46.7166 133.16 50.5944V80.4625H118.826V25.5504H132.629V31.1593C137.153 26.566 142.578 24.2578 148.925 24.2578C153.241 24.2578 157.096 25.2734 160.466 27.3277H160.443Z" fill="#1A3C34"/>
<path d="M224.495 29.9821C228.881 33.7907 231.074 39.0072 231.074 45.6087V80.4394H217.271V74.715C215.262 76.8617 212.839 78.5697 210.046 79.8393C207.253 81.0857 204.16 81.732 200.767 81.732C194.65 81.732 189.618 80.1162 185.671 76.8848C181.724 73.6533 179.739 69.3369 179.739 63.9358C179.739 58.5346 181.586 54.3106 185.302 50.9868C188.995 47.686 193.958 46.0241 200.121 46.0241H216.74V45.1701C216.74 42.3772 215.77 40.1613 213.831 38.5456C211.892 36.9298 209.307 36.122 206.076 36.122C203.191 36.122 200.975 36.6528 199.382 37.7377C197.789 38.8226 196.728 40.1151 196.151 41.6155H181.586C182.44 36.0758 185.071 31.8056 189.457 28.7819C193.842 25.7581 199.405 24.2578 206.168 24.2578C213.993 24.2578 220.11 26.1736 224.495 29.9821ZM212.954 66.7056C215.47 64.4436 216.74 61.4429 216.74 57.7036V56.8496H202.729C200.005 56.8496 197.882 57.4497 196.358 58.6269C194.858 59.8041 194.096 61.4429 194.096 63.5434C194.096 65.4823 194.858 67.0749 196.404 68.2983C197.951 69.5216 200.051 70.1217 202.706 70.1217C207.022 70.1217 210.438 68.9907 212.954 66.7287V66.7056Z" fill="#1A3C34"/>
<path d="M277.492 24.8121V38.0843H270.591C266.782 38.0843 263.551 39.3769 260.873 41.9621C258.219 44.5473 256.88 47.8941 256.88 52.0027V80.4859H242.546V25.5508H256.349V31.6906C260.873 27.0973 266.459 24.7891 273.06 24.7891H277.492V24.8121Z" fill="#1A3C34"/>
<path d="M80.8571 67.8372C89.3089 67.8372 96.1604 60.9856 96.1604 52.5338C96.1604 44.082 89.3089 37.2305 80.8571 37.2305C72.4053 37.2305 65.5537 44.082 65.5537 52.5338C65.5537 60.9856 72.4053 67.8372 80.8571 67.8372Z" fill="#1A3C34"/>
<path d="M80.8565 20.3828C69.5233 20.3828 59.6442 26.5457 54.3584 35.6862H107.378C102.092 26.5457 92.1898 20.3828 80.8796 20.3828H80.8565Z" fill="#1A3C34"/>
<path d="M80.8571 84.6862C92.1904 84.6862 102.069 78.5233 107.355 69.3828H54.3359C59.6217 78.5233 69.5239 84.6862 80.8341 84.6862H80.8571Z" fill="#1A3C34"/>
<path d="M43.7871 18.8349H117.926C109.571 7.4324 96.0909 0 80.8568 0C65.6227 0 52.1428 7.4324 43.7871 18.8349Z" fill="#1A3C34"/>
<path d="M117.857 86.2344H43.833C52.1887 97.6138 65.6455 105 80.8565 105C96.0676 105 109.524 97.6138 117.88 86.2344H117.857Z" fill="#1A3C34"/>
</svg>
